<?xml version="1.0" encoding="UTF-8"?>
<svg xmlns="http://www.w3.org/2000/svg" xmlns:xlink="http://www.w3.org/1999/xlink" width="434.36pt" height="73.71pt" viewBox="0 0 434.36 73.71" version="1.1">
<defs>
<clipPath id="clip1">
  <path d="M 129 19 L 434.359375 19 L 434.359375 62 L 129 62 Z M 129 19 "/>
</clipPath>
<clipPath id="clip2">
  <path d="M 0 0 L 104 0 L 104 73.710938 L 0 73.710938 Z M 0 0 "/>
</clipPath>
</defs>
<g id="surface1">
<g clip-path="url(#clip1)" clip-rule="nonzero">
<path style=" stroke:none;fill-rule:nonzero;fill:rgb(13.725281%,12.156677%,12.548828%);fill-opacity:1;" d="M 147.074219 36.46875 C 147.082031 36.476563 146.425781 36.191406 146.425781 36.191406 C 142.238281 34.371094 142.070313 34.304688 141.078125 33.59375 C 139.707031 32.617188 139.253906 31.855469 139.253906 30.582031 C 139.253906 28.347656 141.09375 27.203125 144.742188 27.203125 C 147.96875 27.203125 150.328125 27.757813 154.078125 29.429688 L 154.664063 29.683594 L 154.664063 21.132813 L 154.386719 21.027344 C 150.785156 19.699219 147.769531 19.132813 144.308594 19.132813 C 135.003906 19.132813 129.675781 23.664063 129.675781 31.570313 C 129.675781 37.523438 132.328125 40.945313 139.15625 43.757813 C 146.410156 46.816406 147.097656 47.578125 147.097656 49.8125 C 147.097656 52.414063 144.933594 53.738281 140.667969 53.738281 C 136.992188 53.738281 134.210938 53 130.058594 50.921875 L 129.445313 50.617188 L 129.445313 59.175781 L 129.691406 59.296875 C 133.550781 61.082031 136.917969 61.804688 141.324219 61.804688 C 151.5 61.804688 157.109375 57.273438 157.109375 49.039063 C 157.109375 42.800781 154.578125 39.628906 147.074219 36.46875 M 191.679688 51.726563 C 187.835938 53.179688 185.335938 53.683594 182.101563 53.683594 C 175.371094 53.683594 172.75 50.039063 172.75 40.667969 C 172.75 30.890625 175.296875 27.257813 182.15625 27.257813 C 185.335938 27.257813 188.121094 27.828125 191.449219 29.152344 L 192.023438 29.382813 L 192.023438 20.917969 L 191.75 20.8125 C 188.625 19.660156 185.492188 19.132813 181.882813 19.132813 C 176.28125 19.132813 171.511719 20.726563 168.089844 23.761719 C 163.808594 27.535156 161.816406 32.921875 161.816406 40.722656 C 161.816406 47.335938 163.171875 52.066406 166.085938 55.597656 C 169.484375 59.660156 174.832031 61.804688 181.558594 61.804688 C 185.320313 61.804688 188.9375 61.03125 192 59.5625 L 192.238281 59.457031 L 192.238281 51.515625 L 191.679688 51.726563 M 223.925781 20.074219 C 223.925781 20.074219 223.925781 35.136719 223.925781 35.941406 L 209.5625 35.941406 C 209.5625 35.136719 209.5625 20.074219 209.5625 20.074219 L 199.167969 20.074219 L 199.167969 60.984375 L 209.5625 60.984375 C 209.5625 60.984375 209.5625 44.933594 209.5625 44.121094 L 223.925781 44.121094 C 223.925781 44.933594 223.925781 60.984375 223.925781 60.984375 L 234.320313 60.984375 L 234.320313 20.074219 L 223.925781 20.074219 M 253.488281 52.691406 L 253.488281 44.121094 C 254.273438 44.121094 267.335938 44.121094 267.335938 44.121094 L 267.335938 36.214844 C 267.335938 36.214844 254.273438 36.214844 253.488281 36.214844 L 253.488281 28.363281 C 254.289063 28.363281 271.023438 28.363281 271.023438 28.363281 L 271.023438 20.074219 L 243.09375 20.074219 L 243.09375 60.984375 L 271.863281 60.984375 L 272.585938 52.691406 C 272.585938 52.691406 254.289063 52.691406 253.488281 52.691406 M 304.722656 20.074219 C 304.722656 20.074219 304.722656 40.171875 304.722656 42.433594 C 303.34375 40.59375 287.980469 20.074219 287.980469 20.074219 L 279.257813 20.074219 L 279.257813 60.984375 L 288.074219 60.984375 C 288.074219 60.984375 288.074219 38.523438 288.074219 36.253906 C 289.464844 38.09375 306.617188 60.984375 306.617188 60.984375 L 313.539063 60.984375 L 313.539063 20.074219 L 304.722656 20.074219 M 341.570313 39.34375 C 341.964844 38.839844 356.789063 20.074219 356.789063 20.074219 L 345.984375 20.074219 C 345.984375 20.074219 334.058594 35.773438 332.707031 37.535156 C 332.707031 35.382813 332.707031 20.074219 332.707031 20.074219 L 322.316406 20.074219 L 322.316406 60.984375 L 332.707031 60.984375 C 332.707031 60.984375 332.707031 45.859375 332.707031 43.683594 C 334.058594 45.457031 345.773438 60.984375 345.773438 60.984375 L 358.121094 60.984375 C 358.121094 60.984375 341.964844 39.863281 341.570313 39.34375 M 373.273438 52.691406 L 373.273438 44.121094 C 374.0625 44.121094 387.117188 44.121094 387.117188 44.121094 L 387.117188 36.214844 C 387.117188 36.214844 374.0625 36.214844 373.273438 36.214844 L 373.273438 28.363281 C 374.078125 28.363281 390.808594 28.363281 390.808594 28.363281 L 390.808594 20.074219 L 362.886719 20.074219 L 362.886719 60.984375 L 391.640625 60.984375 L 392.375 52.691406 C 392.375 52.691406 374.078125 52.691406 373.273438 52.691406 M 409.4375 27.96875 C 410.140625 27.96875 414.171875 27.96875 414.171875 27.96875 C 418.222656 27.96875 419.515625 29.128906 419.515625 32.734375 C 419.515625 36.3125 418.070313 37.644531 414.171875 37.644531 C 414.171875 37.644531 410.140625 37.644531 409.4375 37.644531 L 409.4375 27.96875 M 425.613281 46.238281 C 424.46875 44.347656 423.277344 43.164063 421.980469 42.367188 C 427.265625 40.613281 429.636719 37.558594 429.636719 32.183594 C 429.636719 24.03125 424.683594 20.074219 414.5 20.074219 L 399.039063 20.074219 L 399.039063 60.984375 L 409.4375 60.984375 C 409.4375 60.984375 409.4375 45.648438 409.4375 44.84375 C 409.925781 44.84375 410.757813 44.84375 410.757813 44.84375 C 413.101563 44.84375 413.945313 45.46875 415.777344 48.601563 L 423.007813 60.984375 L 434.355469 60.984375 L 425.613281 46.238281 "/>
</g>
<g clip-path="url(#clip2)" clip-rule="nonzero">
<path style=" stroke:none;fill-rule:nonzero;fill:rgb(92.89856%,10.998535%,14.099121%);fill-opacity:1;" d="M 96.160156 63.097656 C 96.160156 64.777344 95.058594 66.121094 93.414063 66.121094 L 10.421875 66.121094 C 8.777344 66.121094 7.574219 64.777344 7.574219 63.097656 L 7.574219 10.496094 C 7.574219 8.816406 8.777344 7.480469 10.421875 7.480469 L 93.414063 7.480469 C 95.058594 7.480469 96.160156 8.816406 96.160156 10.496094 L 96.160156 63.097656 M 93.414063 0 L 10.421875 0 C 4.71875 0 0 4.574219 0 10.496094 L 0 63.097656 C 0 69.015625 4.71875 73.710938 10.421875 73.710938 L 93.414063 73.710938 C 99.011719 73.710938 103.738281 69.015625 103.738281 63.097656 L 103.738281 10.496094 C 103.738281 4.574219 99.011719 0 93.414063 0 Z M 78.703125 46.792969 C 78.703125 41.878906 75.632813 40.761719 71.132813 40.761719 L 66.957031 40.761719 L 66.957031 53.152344 L 71.023438 53.152344 C 75.085938 53.152344 78.703125 51.816406 78.703125 46.792969 M 66.957031 31.828125 L 70.910156 31.828125 C 74.644531 31.828125 77.386719 30.15625 77.386719 26.019531 C 77.386719 21.441406 73.871094 20.210938 70.140625 20.210938 L 66.957031 20.210938 Z M 74.09375 60.976563 L 55.652344 60.976563 L 55.652344 12.726563 L 74.976563 12.726563 C 84.085938 12.726563 89.023438 16.53125 89.023438 25.574219 C 89.023438 30.265625 85.179688 33.617188 81.011719 35.738281 C 86.832031 37.40625 90.777344 40.992188 90.777344 47.011719 C 90.777344 56.847656 82.65625 60.976563 74.09375 60.976563 Z M 39.300781 37.632813 C 39.300781 27.914063 38.304688 20.328125 27.988281 20.328125 L 25.679688 20.328125 L 25.679688 53.152344 L 29.746094 53.152344 C 35.78125 53.152344 39.300781 48.246094 39.300781 37.632813 M 31.722656 60.976563 L 14.269531 60.976563 L 14.269531 12.726563 L 31.722656 12.726563 C 44.015625 12.726563 50.601563 20.546875 50.601563 36.632813 C 50.601563 50.59375 46.214844 60.867188 31.722656 60.976563 "/>
</g>
</g>
</svg>
