<svg xmlns="http://www.w3.org/2000/svg" width="282.449" height="54.207" viewBox="0 0 282.449 54.207">
  <g id="Kuehne_plus_Nagel" data-name="Kuehne plus Nagel" transform="translate(-67.5 -215)">
    <path id="Path_134" data-name="Path 134" d="M366.231,242.084v1.006a21.993,21.993,0,0,0,4.72,12.613l.619.774-3.4,3.869-.851-.929c-14.548-17.334-3.018-43.025,19.81-44.418h2.863c22.905,1.393,34.435,27.007,19.81,44.418l-.851.929-3.4-3.869.619-.774.542-.774a22.352,22.352,0,0,0-8.512-33.042l-.929-.464-1.006-.387a22.316,22.316,0,0,0-29.87,18.727l-.077,1.161-.077,1.161" transform="translate(-66.35 0)" fill="#00b9f2"/>
    <path id="Path_135" data-name="Path 135" d="M384.469,242.726H388.8v-.542l-.387-.155-.387-.232a6.153,6.153,0,0,1,3.173-11.3h.619a6.149,6.149,0,0,1,3.173,11.3l-.387.232-.387.155v.542h4.333v3.327h-4.333v21.667l.774-.077a21.762,21.762,0,0,0,9.9-4.179l.619-.464,3.25,3.792-.929.7a28.374,28.374,0,0,1-32.81,0l-.929-.7L377.35,263l.619.464a22.122,22.122,0,0,0,9.9,4.179l.774.077V246.054h-4.333v-3.327Zm4.643-6.113v.464a2.429,2.429,0,0,0,4.8-.232v-.464a2.429,2.429,0,0,0-4.8-.232v.464" transform="translate(-69.345 -3.506)" fill="#072b52"/>
    <path id="Path_136" data-name="Path 136" d="M130.7,257.641h4.179v-6.655H140.3v6.655h4.179V241.7H140.3v5.881h-5.417V241.7H130.7v15.941" transform="translate(-14.294 -6.039)" fill="#072b52"/>
    <path id="Path_137" data-name="Path 137" d="M154.4,257.641h3.947v-10.06l5.572,10.06h4.256V241.7h-3.947v9.9l-5.494-9.9H154.4v15.941" transform="translate(-19.654 -6.039)" fill="#072b52"/>
    <path id="Path_138" data-name="Path 138" d="M178.1,257.641h12.072v-3.4h-7.893v-3.173h6.578v-3.25h-6.578V244.95h7.506V241.7H178.1v15.941" transform="translate(-25.015 -6.039)" fill="#072b52"/>
    <path id="Path_139" data-name="Path 139" d="M280.086,255.719V248.6h-6.655v3.018h2.708v2.321l-.232.155-.232.077c-4.411,1.625-6.5-1.393-6.113-5.726l.077-.464.077-.464c.31-3.25,4.024-4.488,5.572-2.089l.232.387.155.387h4.179l-.077-.387-.077-.31c-1.935-6.887-12.613-6.191-14.084,1.238l-.077.387-.077.387c-1.238,8.976,6.191,12.691,13.7,8.589l.542-.387h.387" transform="translate(-44.743 -5.82)" fill="#072b52"/>
    <path id="Path_140" data-name="Path 140" d="M289.7,257.641h11.994v-3.4H293.8v-3.173h6.578v-3.25H293.8V244.95h7.583V241.7H289.7v15.941" transform="translate(-50.256 -6.039)" fill="#072b52"/>
    <path id="Path_141" data-name="Path 141" d="M310.1,257.641h11.3v-3.4h-7.2V241.7h-4.1v15.941" transform="translate(-54.87 -6.039)" fill="#072b52"/>
    <path id="Path_142" data-name="Path 142" d="M221.6,257.641h3.869v-10.06l5.649,10.06h4.256V241.7h-3.946v9.9l-5.572-9.9H221.6v15.941" transform="translate(-34.853 -6.039)" fill="#072b52"/>
    <path id="Path_143" data-name="Path 143" d="M248.842,241.7h3.792l6.423,15.941h-4.566l-1.083-2.941h-6.268l-1.083,2.941H241.8l6.423-15.941Zm3.482,9.9-2.012-5.726-2.089,5.726h4.1" transform="translate(-39.422 -6.039)" fill="#072b52"/>
    <path id="Path_144" data-name="Path 144" d="M206.567,257.957h-2.476V251.69H197.9v-2.244h6.191V243.1h2.476v6.345h6.191v2.244h-6.191v6.268" transform="translate(-29.493 -6.356)" fill="#00b9f2"/>
    <path id="Path_145" data-name="Path 145" d="M111.1,257.441h11.994v-3.4h-7.816v-3.173h6.578v-3.25h-6.578v-2.786h7.506V241.5H111.1v15.941" transform="translate(-9.861 -5.994)" fill="#072b52"/>
    <path id="Path_146" data-name="Path 146" d="M76.4,241.7h4.72l-5.185,6.423,5.881,9.6H76.863L73.3,251.3l-1.548,1.857v4.566H67.5V241.7h4.256v6.268L76.4,241.7" transform="translate(0 -6.039)" fill="#072b52"/>
    <path id="Path_147" data-name="Path 147" d="M102.015,241.7H97.837v10.06c0,1.625-.774,2.631-2.4,2.708h-.774c-1.7-.077-2.321-1.161-2.4-2.708V241.7H88.087v9.441c-1.006,9.363,14.857,9.363,13.929,0V241.7" transform="translate(-4.646 -6.039)" fill="#072b52"/>
  </g>
</svg>
