<svg xmlns="http://www.w3.org/2000/svg" width="264.74" height="43.651" viewBox="0 0 264.74 43.651">
  <g id="Mainfreight" transform="translate(-25.845 -277.647)">
    <path id="Path_148" data-name="Path 148" d="M59.462,281.823l-6.122-3.083-11.362.176-15.678,27,18.365,15.5H266.143l11.1-21.007h8.72l4.624-8.015L278.958,278.74H248.086l-1.1,2.775-.7-2.819-8.588.088-1.629,2.819-2.642-2.907-9.2.088-1.629,4.14c.044,0,.793-4.624-7.663-4.624-7.663,0-15.458,3.347-15.458,3.3l-1.453-2.907-7.8.088-1.674,2.819-.617-2.907-16.471.088-2.819,5.637a5.249,5.249,0,0,0-4.712-5.109l-15.106,2.466-1.057-3.083-15.238.088-1.453,2.995-.44-3.083-9.116.088-1.541,2.73-3.083-2.819-7.4.088-1.453,2.907-.528-2.995-7.839.264-1.718,3.083-7.971-3.3-7.883.176-2.114,2.642-5.813-2.819-11.715.617" transform="translate(0 -0.116)" fill="#005cb9"/>
    <path id="Path_149" data-name="Path 149" d="M46.686,279.7h-4.4L27,306.609h4.888L46.642,279.7" transform="translate(-0.392 -0.899)" fill="#e21e26"/>
    <path id="Path_150" data-name="Path 150" d="M46.686,279.7h-4.4L27,306.609h4.888L46.642,279.7Z" transform="translate(-0.392 -0.899)" fill="none" stroke="#e21e26" stroke-miterlimit="3.864" stroke-width="0.888"/>
    <path id="Path_151" data-name="Path 151" d="M121.8,298.241h7.09l1.982-2.554h3.479l-.264,2.554h7l2.026-18.541H134.88" transform="translate(-53.442 -0.899)" fill="#fff"/>
    <path id="Path_152" data-name="Path 152" d="M121.8,298.241h7.09l1.982-2.554h3.479l-.264,2.554h7l2.026-18.541H134.88Z" transform="translate(-53.442 -0.899)" fill="none" stroke="#fff" stroke-miterlimit="3.864" stroke-width="0.888"/>
    <path id="Path_153" data-name="Path 153" d="M148.741,303.095H147.2l2.07-2.995" transform="translate(-67.655 -12.315)" fill="#005cb9"/>
    <path id="Path_154" data-name="Path 154" d="M169.7,298.241h7.751L187.36,279.7h-7.531" transform="translate(-80.246 -0.899)" fill="#fff"/>
    <path id="Path_155" data-name="Path 155" d="M169.7,298.241h7.751L187.36,279.7h-7.531Z" transform="translate(-80.246 -0.899)" fill="none" stroke="#fff" stroke-miterlimit="3.864" stroke-width="0.888"/>
    <path id="Path_156" data-name="Path 156" d="M192.2,298.241h7.135l3.083-5.813,1.541,5.813h9.116l10-18.541H214.22l-3.611,6.166-1.1-6.166h-7.355" transform="translate(-92.837 -0.899)" fill="#fff"/>
    <path id="Path_157" data-name="Path 157" d="M192.2,298.241h7.135l3.083-5.813,1.541,5.813h9.116l10-18.541H214.22l-3.611,6.166-1.1-6.166h-7.355Z" transform="translate(-92.837 -0.899)" fill="none" stroke="#fff" stroke-miterlimit="3.864" stroke-width="0.892"/>
    <path id="Path_158" data-name="Path 158" d="M254.209,279.7,244.3,298.241h7.355l3.391-6.166h7.707l2.819-5.2h-7.707l.925-1.894h7.8L269.4,279.7" transform="translate(-121.992 -0.899)" fill="#fff"/>
    <path id="Path_159" data-name="Path 159" d="M254.209,279.7,244.3,298.241h7.355l3.391-6.166h7.707l2.819-5.2h-7.707l.925-1.894h7.8L269.4,279.7Z" transform="translate(-121.992 -0.899)" fill="none" stroke="#fff" stroke-miterlimit="3.864" stroke-width="0.888"/>
    <path id="Path_160" data-name="Path 160" d="M283.8,298.129h8.191l3.435-6.562h.925l.7,6.562h7.179L303.4,291.3a16.611,16.611,0,0,0,4.008-1.365,5.835,5.835,0,0,0,2.73-4.448c.352-2.642-.352-4.316-2.29-5.373a12.6,12.6,0,0,0-4.448-.617h-9.645" transform="translate(-144.097 -0.787)" fill="#fff"/>
    <path id="Path_161" data-name="Path 161" d="M283.8,298.129h8.191l3.435-6.562h.925l.7,6.562h7.179L303.4,291.3a16.611,16.611,0,0,0,4.008-1.365,5.835,5.835,0,0,0,2.73-4.448c.352-2.642-.352-4.316-2.29-5.373a12.6,12.6,0,0,0-4.448-.617h-9.645Z" transform="translate(-144.097 -0.787)" fill="none" stroke="#fff" stroke-miterlimit="3.864" stroke-width="0.888"/>
    <path id="Path_162" data-name="Path 162" d="M318.69,290.544c.44.044,1.277.044.7,1.013a1.937,1.937,0,0,1-1.894.925h-1.1l1.1-1.982" transform="translate(-162.34 -6.943)" fill="#005cb9"/>
    <path id="Path_163" data-name="Path 163" d="M333.6,298.241h15.722l3.479-5.9H346.68l1.013-2.026h6.078l1.938-3.347h-6.562l.925-1.894h6.518L359.5,279.7H343.421" transform="translate(-171.965 -0.899)" fill="#fff"/>
    <path id="Path_164" data-name="Path 164" d="M333.6,298.241h15.722l3.479-5.9H346.68l1.013-2.026h6.078l1.938-3.347h-6.562l.925-1.894h6.518L359.5,279.7H343.421Z" transform="translate(-171.965 -0.899)" fill="none" stroke="#fff" stroke-miterlimit="3.864" stroke-width="0.888"/>
    <path id="Path_165" data-name="Path 165" d="M374.9,298.241h7.707L392.648,279.7h-7.663" transform="translate(-195.076 -0.899)" fill="#fff"/>
    <path id="Path_166" data-name="Path 166" d="M374.9,298.241h7.707L392.648,279.7h-7.663Z" transform="translate(-195.076 -0.899)" fill="none" stroke="#fff" stroke-miterlimit="3.864" stroke-width="0.888"/>
    <path id="Path_167" data-name="Path 167" d="M419.616,297.341h4.36l5.549-10.349H417.414l-1.63,3.347,2.642-.088c-.484.573-.617,1.365-1.453,1.894-1.585.969-1.365.793-1.894.749-2.642,0-1.409-3.964-.925-5.2,1.057-2.334,3.876-5.109,6.21-5.109,1.277.044,1.1,2.026.925,2.642h8.94c.176-.881.7-3.347,0-4.932-.793-1.85-4.932-2.246-7.839-2.2-8.015,0-10.614.044-15.854,10.173-2.642,4.977-1.189,8.235.264,8.94a10.37,10.37,0,0,0,5.285,1.189,13.325,13.325,0,0,0,8.9-3.435" transform="translate(-211.958)" fill="#fff"/>
    <path id="Path_168" data-name="Path 168" d="M419.616,297.341h4.36l5.549-10.349H417.414l-1.63,3.347,2.642-.088c-.484.573-.617,1.365-1.453,1.894-1.585.969-1.365.793-1.894.749-2.642,0-1.409-3.964-.925-5.2,1.057-2.334,3.876-5.109,6.21-5.109,1.277.044,1.1,2.026.925,2.642h8.94c.176-.881.7-3.347,0-4.932-.793-1.85-4.932-2.246-7.839-2.2-8.015,0-10.614.044-15.854,10.173-2.642,4.977-1.189,8.235.264,8.94a10.37,10.37,0,0,0,5.285,1.189,13.325,13.325,0,0,0,8.9-3.435Z" transform="translate(-211.958)" fill="none" stroke="#fff" stroke-miterlimit="3.864" stroke-width="0.888"/>
    <path id="Path_169" data-name="Path 169" d="M453.8,298.241h8.632l3.655-6.342h4.184l-3.567,6.342h8.94l9.469-18.541h-8.28l-3.479,5.9h-4.36l3.259-5.9h-8.9" transform="translate(-239.228 -0.899)" fill="#fff"/>
    <path id="Path_170" data-name="Path 170" d="M453.8,298.241h8.632l3.655-6.342h4.184l-3.567,6.342h8.94l9.469-18.541h-8.28l-3.479,5.9h-4.36l3.259-5.9h-8.9Z" transform="translate(-239.228 -0.899)" fill="none" stroke="#fff" stroke-miterlimit="3.864" stroke-width="0.888"/>
    <path id="Path_171" data-name="Path 171" d="M251.651,300.8H71.571l8.808-21.1H68.928l-8.9,8.632-.264-8.632H52.853L38.1,306.609h6.562l4.536-8.191.264,8.191h4.756l7.619-7.883-3.523,7.883H261.3l10.57-19.994h9.381l3.92-6.914H254.733l-3.347,6.914h8.191" transform="translate(-6.603 -0.899)" fill="#fff"/>
    <path id="Path_172" data-name="Path 172" d="M251.651,300.8H71.571l8.808-21.1H68.928l-8.9,8.632-.264-8.632H52.853L38.1,306.609h6.562l4.536-8.191.264,8.191h4.756l7.619-7.883-3.523,7.883H261.3l10.57-19.994h9.381l3.92-6.914H254.733l-3.347,6.914h8.191Z" transform="translate(-6.603 -0.899)" fill="none" stroke="#fff" stroke-miterlimit="3.864" stroke-width="0.888"/>
  </g>
</svg>
