<svg xmlns="http://www.w3.org/2000/svg" width="235.096" height="43.081" viewBox="0 0 235.096 43.081">
  <g id="layer1" transform="translate(-127.14 -383.595)">
    <g id="g2851" transform="translate(127.14 383.595)">
      <g id="Group_38" data-name="Group 38">
        <g id="g2853">
          <path id="path2859" d="M361.256-464.993H348.62v16.457H335.454v-16.457H322.818v41.377h12.636V-439.9H348.62v16.28h12.636Zm43.9,33.09v-33.031H392.524v41.377h22.863l1.881-8.287L405.16-431.9Zm-21.923-33.09H370.6v41.377h12.636Zm51.192,0H421.793v41.377H434.43Zm62.242,10.579c0-2.233,2.233-3.291,5.877-3.291a32.393,32.393,0,0,1,11.226,2.057l-1.058-8.992a48.543,48.543,0,0,0-11.578-1.234c-10.227,0-17.1,4.055-17.1,12.46,0,14.517,19.689,11.578,19.689,18.337,0,2.586-1.94,4-6.583,4a38.1,38.1,0,0,1-14.341-3.291l1.411,9.521a41.14,41.14,0,0,0,13.165,2.057c10.521,0,19.219-3.468,19.219-13.871-.059-13.753-19.924-11.167-19.924-17.75m-35.617,20.924c11.755,0,19.219-6.054,19.219-16.633,0-11.578-7.934-15.751-20.923-15.751a140.322,140.322,0,0,0-15.4.882v41.377h12.578v-9.874h4.526Zm6.7-16.4c0,5.348-2.586,8.992-9.169,8.992h-2.057V-458c.764-.059,1.411-.059,2.057-.059,6.23,0,9.169,2.939,9.169,8.17m-169.093,16.4c11.755,0,19.16-6.054,19.16-16.633,0-11.578-7.934-15.751-20.924-15.751a140.322,140.322,0,0,0-15.4.882v41.377h12.636v-9.874h4.526Zm6.759-16.4c0,5.348-2.586,8.992-9.169,8.992H294.2V-458c.764-.059,1.411-.059,2.057-.059,6.23,0,9.169,2.939,9.169,8.17" transform="translate(-281.5 465.875)" fill="#0b5ed7"/>
        </g>
      </g>
    </g>
  </g>
</svg>
