<svg xmlns="http://www.w3.org/2000/svg" xmlns:xlink="http://www.w3.org/1999/xlink" width="177" height="177" viewBox="0 0 177 177">
  <defs>
    <clipPath id="clip-path">
      <rect id="Rectangle_22" data-name="Rectangle 22" width="177" height="177" transform="translate(1084 3975)" fill="#fff" stroke="#707070" stroke-width="1"/>
    </clipPath>
  </defs>
  <g id="Mask_Group_5" data-name="Mask Group 5" transform="translate(-1084 -3975)" clip-path="url(#clip-path)">
    <g id="Contract" transform="translate(1084 3975.001)">
      <path id="Path_110" data-name="Path 110" d="M176.674,41.957a8.854,8.854,0,0,0-16.222-2.124L158.978,42.4a2.949,2.949,0,0,0-4.011,1.063l-7.492,12.77-2.566-1.475a2.947,2.947,0,1,0-2.949,5.1l2.566,1.475-25.071,43.446-6.194,16.548-2.95,5.514a8.849,8.849,0,0,0,.472,9.557l-6.636,8.14-1.858-4.659a5.9,5.9,0,0,0-10.531-.827l-1.061,1.8-1-11.8a5.9,5.9,0,0,0-11.474-1.385l-7.256,21.767a2.949,2.949,0,0,0,1.858,3.717,2.554,2.554,0,0,0,.915.235,2.949,2.949,0,0,0,2.8-2l7.225-21.767L84.8,141.59a5.9,5.9,0,0,0,10.943,2.538l1.092-1.8,1.829,4.632a5.9,5.9,0,0,0,10.087,1.5l6.873-8.7a9.084,9.084,0,0,0,2.33.3,8.849,8.849,0,0,0,7.7-4.367l2.95-4.925,11.238-13.656,25.336-43.977,2.566,1.475a2.957,2.957,0,0,1,1.092,4.041l-11.8,20.441a2.928,2.928,0,1,0,4.984,3.068l11.8-20.441a8.845,8.845,0,0,0-3.245-12.093L168,68.148l7.374-12.772a2.951,2.951,0,0,0-1.061-4.011L175.79,48.8a8.846,8.846,0,0,0,.884-6.842Zm-11.12.825a2.949,2.949,0,0,1,1.8-1.385,3.1,3.1,0,0,1,2.241.3,2.952,2.952,0,0,1,1.387,1.8,3.1,3.1,0,0,1-.3,2.241L169.213,48.3l-5.133-2.949Zm-40.2,82.351-1.475-.855-4.365-2.538,4.188-11.208,9.291,5.368Zm-8.848,8.523a2.948,2.948,0,0,1-.884-3.864l1.475-2.565,5.131,2.949-1.475,2.536a2.948,2.948,0,0,1-4.247.943Zm19.85-22.592-10.205-5.9,23.6-40.881,10.205,5.9ZM162.9,65.08l-10.205-5.9,5.9-10.205,10.205,5.9Zm0,0"/>
      <path id="Path_111" data-name="Path 111" d="M46.542,132.182,36.1,142.594l-6.253-6.253a2.951,2.951,0,1,0-4.159,4.188l6.253,6.253a5.946,5.946,0,0,0,8.347,0L50.7,136.341a2.95,2.95,0,0,0-4.159-4.159Zm0,0"/>
      <path id="Path_112" data-name="Path 112" d="M11.8,140.115a25.071,25.071,0,0,0,50.141,0,2.949,2.949,0,0,0-5.9,0,19.174,19.174,0,1,1-7.669-15.337,2.95,2.95,0,0,0,3.54-4.719A25.071,25.071,0,0,0,11.8,140.115Zm0,0"/>
      <path id="Path_113" data-name="Path 113" d="M106.182,23.61a2.949,2.949,0,0,0,0-5.9H29.495a2.95,2.95,0,0,0-2.949,2.949v11.8a2.949,2.949,0,0,0,2.949,2.949h76.687a2.949,2.949,0,0,0,0-5.9H32.444v-5.9Zm0,0"/>
      <path id="Path_114" data-name="Path 114" d="M38.343,41.307a2.949,2.949,0,1,0,0,5.9h58.99a2.949,2.949,0,1,0,0-5.9Zm0,0"/>
      <path id="Path_115" data-name="Path 115" d="M115.03,61.954H50.141a2.949,2.949,0,0,0,0,5.9H115.03a2.949,2.949,0,1,0,0-5.9Zm0,0"/>
      <path id="Path_116" data-name="Path 116" d="M85.535,82.6a2.95,2.95,0,0,0-2.95-2.95H23.6a2.949,2.949,0,1,0,0,5.9h58.99A2.949,2.949,0,0,0,85.535,82.6Zm0,0"/>
      <path id="Path_117" data-name="Path 117" d="M115.03,79.651H94.384a2.949,2.949,0,0,0,0,5.9H115.03a2.949,2.949,0,1,0,0-5.9Zm0,0"/>
      <path id="Path_118" data-name="Path 118" d="M53.091,100.3a2.949,2.949,0,1,0,0-5.9H23.6a2.949,2.949,0,1,0,0,5.9Zm0,0"/>
      <path id="Path_119" data-name="Path 119" d="M64.889,100.3H85.535a2.949,2.949,0,0,0,0-5.9H64.889a2.949,2.949,0,0,0,0,5.9Zm0,0"/>
      <path id="Path_120" data-name="Path 120" d="M132.727,135.691a2.95,2.95,0,0,0-2.95,2.949v29.495a2.949,2.949,0,0,1-2.949,2.949H8.848A2.949,2.949,0,0,1,5.9,168.136V8.863A2.95,2.95,0,0,1,8.848,5.913h117.98a2.95,2.95,0,0,1,2.949,2.949V64.255a2.95,2.95,0,0,0,5.9,0V8.863A8.849,8.849,0,0,0,126.828.014H8.848A8.849,8.849,0,0,0,0,8.863V168.136a8.848,8.848,0,0,0,8.848,8.848h117.98a8.848,8.848,0,0,0,8.848-8.848V138.641A2.95,2.95,0,0,0,132.727,135.691Zm0,0"/>
    </g>
  </g>
</svg>
