<svg xmlns="http://www.w3.org/2000/svg" xmlns:xlink="http://www.w3.org/1999/xlink" width="177" height="177" viewBox="0 0 177 177">
  <defs>
    <clipPath id="clip-path">
      <rect id="Rectangle_17" data-name="Rectangle 17" width="177" height="177" transform="translate(1084 3371)" fill="#fff" stroke="#707070" stroke-width="1"/>
    </clipPath>
  </defs>
  <g id="Mask_Group_3" data-name="Mask Group 3" transform="translate(-1084 -3371)" clip-path="url(#clip-path)">
    <g id="Suggestion" transform="translate(1078.1 3362.15)">
      <path id="Path_67" data-name="Path 67" d="M143.454,87.4a30.623,30.623,0,0,0,3.6-46.5,28.954,28.954,0,0,0-20.888-8.442C110.1,32.682,97.059,46.246,97.09,62.69A30.435,30.435,0,0,0,109.736,87.4a1.586,1.586,0,0,1,.63,1.3v3.938a8.845,8.845,0,0,0,1.475,16V112.1a8.86,8.86,0,0,0,8.85,8.85h11.8a8.86,8.86,0,0,0,8.85-8.85v-3.457a8.845,8.845,0,0,0,1.475-16V88.7A1.59,1.59,0,0,1,143.454,87.4ZM102.992,62.679c-.025-13.23,10.411-24.144,23.264-24.327l.337,0A23.119,23.119,0,0,1,142.917,45.1a24.723,24.723,0,0,1-2.891,37.5,7.5,7.5,0,0,0-3.11,6.107V91.45h-20.65V88.7a7.492,7.492,0,0,0-3.1-6.1A24.524,24.524,0,0,1,102.992,62.679Zm29.5,52.371h-11.8a2.953,2.953,0,0,1-2.95-2.95v-2.95h17.7v2.95A2.953,2.953,0,0,1,132.492,115.05Zm5.9-11.8h-23.6a2.95,2.95,0,0,1,0-5.9h23.6a2.95,2.95,0,0,1,0,5.9Z"/>
      <path id="Path_68" data-name="Path 68" d="M131.375,51.088a13.335,13.335,0,0,1,7.684,8.711,2.95,2.95,0,1,0,5.679-1.6,19.279,19.279,0,0,0-11.131-12.574,2.95,2.95,0,1,0-2.234,5.461Z"/>
      <path id="Path_69" data-name="Path 69" d="M129.542,23.6V17.7a2.95,2.95,0,1,0-5.9,0v5.9a2.95,2.95,0,1,0,5.9,0Z"/>
      <path id="Path_70" data-name="Path 70" d="M109.795,30.121a2.952,2.952,0,0,0,2.692-4.151l-2.4-5.39a2.95,2.95,0,0,0-5.39,2.4l2.4,5.39A2.95,2.95,0,0,0,109.795,30.121Z"/>
      <path id="Path_71" data-name="Path 71" d="M95.9,40.215a2.95,2.95,0,0,0,1.975-5.143l-4.384-3.948a2.95,2.95,0,1,0-3.948,4.386l4.384,3.946a2.939,2.939,0,0,0,1.973.759Z"/>
      <path id="Path_72" data-name="Path 72" d="M90.118,53.049a2.95,2.95,0,0,0-1.894-3.717l-5.611-1.823A2.95,2.95,0,1,0,80.79,53.12L86.4,54.944a2.946,2.946,0,0,0,3.717-1.894Z"/>
      <path id="Path_73" data-name="Path 73" d="M85.209,66.283l-5.868.617a2.95,2.95,0,1,0,.617,5.868l5.868-.617a2.95,2.95,0,1,0-.617-5.868Z"/>
      <path id="Path_74" data-name="Path 74" d="M167.357,72.151l5.868.617a2.95,2.95,0,1,0,.617-5.868l-5.868-.617a2.95,2.95,0,1,0-.617,5.868Z"/>
      <path id="Path_75" data-name="Path 75" d="M165.869,55.088a2.945,2.945,0,0,0,.912-.145l5.611-1.823a2.95,2.95,0,1,0-1.823-5.611l-5.611,1.823a2.95,2.95,0,0,0,.91,5.757Z"/>
      <path id="Path_76" data-name="Path 76" d="M159.258,39.456l4.384-3.946a2.95,2.95,0,0,0-3.948-4.385l-4.384,3.947a2.95,2.95,0,1,0,3.948,4.384Z"/>
      <path id="Path_77" data-name="Path 77" d="M143.388,30.121a2.95,2.95,0,0,0,2.7-1.751l2.4-5.39a2.95,2.95,0,0,0-5.39-2.4l-2.4,5.39a2.952,2.952,0,0,0,2.692,4.151Z"/>
      <path id="Path_78" data-name="Path 78" d="M174.05,156.35H135.7V153.4c0-4.429-5.764-7.655-7.531-8.538a2.968,2.968,0,0,0-.472-.187l-28.873-8.662C97,134.4,90.467,128.73,82.482,122.981,69.733,113.8,59.848,109.15,53.1,109.15H29.5V106.2a2.95,2.95,0,0,0-2.95-2.95H8.85A2.95,2.95,0,0,0,5.9,106.2v64.9a2.95,2.95,0,0,0,2.95,2.95h17.7a2.95,2.95,0,0,0,2.95-2.95v-2.95h8.712c1.84.245,16.9,3.217,30.2,5.844,26.617,5.255,30.378,5.956,31.208,5.956H174.05a8.86,8.86,0,0,0,8.85-8.85v-5.9a8.86,8.86,0,0,0-8.85-8.85ZM23.6,168.15H11.8v-59H23.6ZM177,171.1a2.953,2.953,0,0,1-2.95,2.95H99.76c-1.84-.245-16.9-3.217-30.2-5.844-26.619-5.255-30.379-5.956-31.21-5.956H29.5v-47.2H53.1c11.162,0,34.3,18.619,42.277,25.793a2.955,2.955,0,0,0,1.125.633l29.242,8.773c1.837.961,3.773,2.5,4.054,3.241v5.81a2.954,2.954,0,0,1-2.707,2.94L98.4,156.5,78.164,144.939a2.95,2.95,0,1,0-2.927,5.123l20.65,11.8a2.95,2.95,0,0,0,.885.332l29.5,5.9a2.961,2.961,0,0,0,.579.057,8.865,8.865,0,0,0,8.344-5.9H174.05A2.953,2.953,0,0,1,177,165.2Z"/>
    </g>
  </g>
</svg>
