<svg xmlns="http://www.w3.org/2000/svg" xmlns:xlink="http://www.w3.org/1999/xlink" width="177" height="177" viewBox="0 0 177 177">
  <defs>
    <clipPath id="clip-path">
      <rect id="Rectangle_15" data-name="Rectangle 15" width="177" height="177" transform="translate(563 3128)" fill="#fff" stroke="#707070" stroke-width="1"/>
    </clipPath>
  </defs>
  <g id="Mask_Group_2" data-name="Mask Group 2" transform="translate(-563 -3128)" clip-path="url(#clip-path)">
    <g id="Profile" transform="translate(563 3128)">
      <g id="Group_13" data-name="Group 13">
        <g id="Group_12" data-name="Group 12">
          <path id="Path_57" data-name="Path 57" d="M143.124,51.423a3.457,3.457,0,0,0,3.457-3.457v-37.6A10.383,10.383,0,0,0,136.209,0H10.374A10.383,10.383,0,0,0,0,10.371V166.629A10.383,10.383,0,0,0,10.374,177H136.209a10.383,10.383,0,0,0,10.371-10.371V141.16a3.457,3.457,0,0,0-6.914,0v25.469a3.461,3.461,0,0,1-3.457,3.457H10.374a3.461,3.461,0,0,1-3.457-3.457V10.371a3.461,3.461,0,0,1,3.457-3.457H136.209a3.461,3.461,0,0,1,3.457,3.457v37.6A3.457,3.457,0,0,0,143.124,51.423Z"/>
        </g>
      </g>
      <g id="Group_15" data-name="Group 15">
        <g id="Group_14" data-name="Group 14">
          <path id="Path_58" data-name="Path 58" d="M73.291,18.668a31.789,31.789,0,0,0-21.82,54.922,3.42,3.42,0,0,0,.371.346,31.745,31.745,0,0,0,42.9,0,3.455,3.455,0,0,0,.371-.346A31.789,31.789,0,0,0,73.291,18.668Zm0,56.7a24.757,24.757,0,0,1-15.035-5.071,17.285,17.285,0,0,1,30.07,0A24.758,24.758,0,0,1,73.291,75.363ZM67.76,49.09V46.843a5.531,5.531,0,0,1,11.063,0V49.09a5.531,5.531,0,0,1-11.062,0ZM93.322,65.228A23.983,23.983,0,0,0,83.136,56.69a12.38,12.38,0,0,0,2.6-7.6V46.843a12.445,12.445,0,0,0-24.891,0V49.09a12.38,12.38,0,0,0,2.6,7.6,23.983,23.983,0,0,0-10.185,8.538,24.891,24.891,0,1,1,40.06,0Z"/>
        </g>
      </g>
      <g id="Group_17" data-name="Group 17">
        <g id="Group_16" data-name="Group 16">
          <path id="Path_59" data-name="Path 59" d="M91.959,151.418H73.291a3.457,3.457,0,0,0,0,6.914H91.959a3.457,3.457,0,0,0,0-6.914Z"/>
        </g>
      </g>
      <g id="Group_19" data-name="Group 19">
        <g id="Group_18" data-name="Group 18">
          <path id="Path_60" data-name="Path 60" d="M91.959,132.059H42.87a3.457,3.457,0,0,0,0,6.914h49.09a3.457,3.457,0,0,0,0-6.914Z"/>
        </g>
      </g>
      <g id="Group_21" data-name="Group 21">
        <g id="Group_20" data-name="Group 20">
          <path id="Path_61" data-name="Path 61" d="M91.959,112.7H42.87a3.457,3.457,0,0,0,0,6.914h49.09a3.457,3.457,0,0,0,0-6.914Z"/>
        </g>
      </g>
      <g id="Group_23" data-name="Group 23">
        <g id="Group_22" data-name="Group 22">
          <path id="Path_62" data-name="Path 62" d="M30.548,94.353A3.454,3.454,0,1,0,31.562,96.8,3.484,3.484,0,0,0,30.548,94.353Z"/>
        </g>
      </g>
      <g id="Group_25" data-name="Group 25">
        <g id="Group_24" data-name="Group 24">
          <path id="Path_63" data-name="Path 63" d="M30.548,113.712a3.454,3.454,0,1,0,1.013,2.444A3.49,3.49,0,0,0,30.548,113.712Z"/>
        </g>
      </g>
      <g id="Group_27" data-name="Group 27">
        <g id="Group_26" data-name="Group 26">
          <path id="Path_64" data-name="Path 64" d="M30.548,133.072a3.454,3.454,0,1,0,1.013,2.444A3.49,3.49,0,0,0,30.548,133.072Z"/>
        </g>
      </g>
      <g id="Group_29" data-name="Group 29">
        <g id="Group_28" data-name="Group 28">
          <path id="Path_65" data-name="Path 65" d="M91.959,93.34H42.87a3.457,3.457,0,0,0,0,6.914h49.09a3.457,3.457,0,0,0,0-6.914Z"/>
        </g>
      </g>
      <g id="Group_31" data-name="Group 31">
        <g id="Group_30" data-name="Group 30">
          <path id="Path_66" data-name="Path 66" d="M169.741,45.052a14.519,14.519,0,0,0-19.834,5.314l-43.5,75.35a3.463,3.463,0,0,0-.442,1.345L102.9,154.492a3.457,3.457,0,0,0,5.486,3.167l22.223-16.367a3.452,3.452,0,0,0,.944-1.055l43.5-75.35A14.536,14.536,0,0,0,169.741,45.052ZM110.647,147.406l1.6-14.323,10.005,5.777Zm16.646-13.62-13.173-7.605L149.03,65.713,162.2,73.319Zm41.775-72.357-3.408,5.9-13.173-7.605,3.408-5.9a7.605,7.605,0,0,1,13.173,7.605Z"/>
        </g>
      </g>
    </g>
  </g>
</svg>
