<svg xmlns="http://www.w3.org/2000/svg" xmlns:xlink="http://www.w3.org/1999/xlink" width="177" height="177" viewBox="0 0 177 177">
  <defs>
    <clipPath id="clip-path">
      <rect id="Rectangle_23" data-name="Rectangle 23" width="177" height="177" transform="translate(659 4276)" fill="#fff" stroke="#707070" stroke-width="1"/>
    </clipPath>
  </defs>
  <g id="Mask_Group_6" data-name="Mask Group 6" transform="translate(-659 -4276)" clip-path="url(#clip-path)">
    <g id="Care" transform="translate(659 4276)">
      <g id="Group_33" data-name="Group 33">
        <g id="Group_32" data-name="Group 32">
          <path id="Path_121" data-name="Path 121" d="M126.7,20.236c-8.959-8.442-24.31-10.368-38.2,3.52C74.633,9.882,59.261,11.795,50.3,20.229a25.3,25.3,0,0,0-.558,36.319L88.5,95.312l38.756-38.756A25.3,25.3,0,0,0,126.7,20.236Zm-4.255,31.5L88.5,85.685,54.557,51.742a18.476,18.476,0,0,1,.415-26.55A17.732,17.732,0,0,1,67.24,20.427c9.749,0,14.133,5.827,21.26,12.955,6.937-6.937,11.4-12.955,21.26-12.955a17.786,17.786,0,0,1,12.274,4.759A18.476,18.476,0,0,1,122.443,51.735Z"/>
        </g>
      </g>
      <g id="Group_35" data-name="Group 35">
        <g id="Group_34" data-name="Group 34">
          <path id="Path_122" data-name="Path 122" d="M165.366,20.427a11.589,11.589,0,0,0-11.573,10.457l-4.309,42.555a10.929,10.929,0,0,0-5.46,2.927l-34.386,32.01a23.119,23.119,0,0,0-7.522,16.883v38.13h40.846V145.443a10.306,10.306,0,0,1,3.275-7.468L172.071,111.9A16.933,16.933,0,0,0,177,99.92V32.061A11.651,11.651,0,0,0,165.366,20.427Zm4.827,79.493a10.164,10.164,0,0,1-2.961,7.2l-25.753,25.992a17.047,17.047,0,0,0-5.324,12.336v11.137H108.923V125.3a16.264,16.264,0,0,1,5.33-11.9l34.495-32.125a4.5,4.5,0,0,1,6.256,0,4.41,4.41,0,0,1,1.3,3.132,4.356,4.356,0,0,1-1.185,3.016l-26.557,24.086,4.575,5.038,26.679-24.2a11.225,11.225,0,0,0,.007-15.882,10.862,10.862,0,0,0-3.56-2.4l4.3-42.48a4.829,4.829,0,0,1,9.633.483Z"/>
        </g>
      </g>
      <g id="Group_37" data-name="Group 37">
        <g id="Group_36" data-name="Group 36">
          <path id="Path_123" data-name="Path 123" d="M67.362,108.375,32.976,76.366a10.876,10.876,0,0,0-5.46-2.927L23.207,30.884A11.634,11.634,0,0,0,0,32.061V99.92A16.906,16.906,0,0,0,4.929,111.9l25.835,26.073a10.321,10.321,0,0,1,3.274,7.475v17.945H74.885v-38.13A23.1,23.1,0,0,0,67.362,108.375Zm.715,48.205H40.846V145.443a17.059,17.059,0,0,0-5.324-12.336L9.769,107.116a10.164,10.164,0,0,1-2.961-7.2V32.061a4.829,4.829,0,0,1,9.633-.5l4.3,42.48A11.229,11.229,0,0,0,17.183,92.33l26.679,24.2,4.575-5.038L21.88,87.408A4.313,4.313,0,0,1,20.7,84.392,4.4,4.4,0,0,1,22,81.26a4.5,4.5,0,0,1,6.256,0l34.495,32.125a16.264,16.264,0,0,1,5.33,11.9v31.295Z"/>
        </g>
      </g>
    </g>
  </g>
</svg>
