<svg xmlns="http://www.w3.org/2000/svg" xmlns:xlink="http://www.w3.org/1999/xlink" width="177" height="177" viewBox="0 0 177 177">
  <defs>
    <clipPath id="clip-path">
      <rect id="Rectangle_21" data-name="Rectangle 21" width="177" height="177" transform="translate(659 3674)" fill="#fff" stroke="#707070" stroke-width="1"/>
    </clipPath>
  </defs>
  <g id="Mask_Group_4" data-name="Mask Group 4" transform="translate(-659 -3674)" clip-path="url(#clip-path)">
    <g id="Destination" transform="translate(659 3674)">
      <path id="Path_79" data-name="Path 79" d="M32.45,165.2a2.948,2.948,0,0,0,2.3-1.106c1.24-1.534,30.15-37.81,30.15-54.944a32.45,32.45,0,1,0-64.9,0c0,17.134,28.909,53.4,30.15,54.944a2.948,2.948,0,0,0,2.3,1.106Zm0-82.6A26.579,26.579,0,0,1,59,109.15c0,11.446-17.438,36.473-26.55,48.318C23.338,145.627,5.9,120.6,5.9,109.15A26.579,26.579,0,0,1,32.45,82.6Zm0,0"/>
      <path id="Path_80" data-name="Path 80" d="M44.25,106.2A11.8,11.8,0,1,0,32.45,118,11.8,11.8,0,0,0,44.25,106.2Zm-17.7,0a5.9,5.9,0,1,1,5.9,5.9A5.9,5.9,0,0,1,26.55,106.2Zm0,0"/>
      <path id="Path_81" data-name="Path 81" d="M153.4,61.95a2.944,2.944,0,0,0,2.236-1.027C157.825,58.383,177,35.749,177,23.6a23.6,23.6,0,1,0-47.2,0c0,12.149,19.175,34.783,21.364,37.323A2.944,2.944,0,0,0,153.4,61.95Zm0-56.05a17.717,17.717,0,0,1,17.7,17.7c0,7.476-11.263,22.88-17.7,30.795-6.44-7.915-17.7-23.3-17.7-30.795A17.717,17.717,0,0,1,153.4,5.9Zm0,0"/>
      <path id="Path_82" data-name="Path 82" d="M162.25,20.65a8.85,8.85,0,1,0-8.85,8.85A8.85,8.85,0,0,0,162.25,20.65Zm-11.8,0a2.95,2.95,0,1,1,2.95,2.95A2.95,2.95,0,0,1,150.45,20.65Zm0,0"/>
      <path id="Path_83" data-name="Path 83" d="M150.45,73.75h2.95a2.95,2.95,0,0,0,0-5.9h-2.95a2.95,2.95,0,0,0,0,5.9Zm0,0"/>
      <path id="Path_84" data-name="Path 84" d="M112.1,91.45h5.965a2.95,2.95,0,0,0,0-5.9h-6.012a2.931,2.931,0,0,0-2.926,2.95,2.97,2.97,0,0,0,2.973,2.95Zm0,0"/>
      <path id="Path_85" data-name="Path 85" d="M145.172,88.5a2.95,2.95,0,0,0,2.95,2.95h6.009a2.95,2.95,0,0,0,0-5.9h-6.009A2.95,2.95,0,0,0,145.172,88.5Zm0,0"/>
      <path id="Path_86" data-name="Path 86" d="M132.417,73.75h6.011a2.95,2.95,0,0,0,0-5.9h-6.011a2.95,2.95,0,0,0,0,5.9Zm0,0"/>
      <path id="Path_87" data-name="Path 87" d="M53.734,171.1H47.722a2.95,2.95,0,1,0,0,5.9h6.012a2.95,2.95,0,0,0,0-5.9Zm0,0"/>
      <path id="Path_88" data-name="Path 88" d="M103.436,84.429a2.893,2.893,0,0,0,.611-.065,2.95,2.95,0,0,0,2.28-3.49,6.133,6.133,0,0,1-.127-1.224,5.9,5.9,0,0,1,.642-2.685,2.95,2.95,0,1,0-5.259-2.675,11.8,11.8,0,0,0-1.03,7.788A2.952,2.952,0,0,0,103.436,84.429Zm0,0"/>
      <path id="Path_89" data-name="Path 89" d="M130.1,91.45h6.012a2.95,2.95,0,0,0,0-5.9H130.1a2.95,2.95,0,0,0,0,5.9Zm0,0"/>
      <path id="Path_90" data-name="Path 90" d="M114.383,73.75H120.4a2.95,2.95,0,1,0,0-5.9h-6.012a2.95,2.95,0,0,0,0,5.9Zm0,0"/>
      <path id="Path_91" data-name="Path 91" d="M85.232,125.012a2.859,2.859,0,0,0,.716.089,2.952,2.952,0,0,0,2.859-2.237,10.411,10.411,0,0,1,2.1-4.13,2.95,2.95,0,1,0-4.516-3.794,16.251,16.251,0,0,0-3.31,6.491,2.95,2.95,0,0,0,2.148,3.581Zm0,0"/>
      <path id="Path_92" data-name="Path 92" d="M143.512,170.976a14.375,14.375,0,0,1-1.911.124h-3.713a2.95,2.95,0,0,0,0,5.9H141.6a20.709,20.709,0,0,0,2.655-.171,2.95,2.95,0,1,0-.755-5.852Zm0,0"/>
      <path id="Path_93" data-name="Path 93" d="M147.621,136.584a20.641,20.641,0,0,0-6.021-.884h-.774a2.95,2.95,0,1,0,0,5.9h.774a14.873,14.873,0,0,1,4.3.637,2.892,2.892,0,0,0,.859.13,2.949,2.949,0,0,0,.858-5.772Zm0,0"/>
      <path id="Path_94" data-name="Path 94" d="M141.329,115.05a2.95,2.95,0,1,0,0-5.9H135.32a2.95,2.95,0,0,0,0,5.9Zm0,0"/>
      <path id="Path_95" data-name="Path 95" d="M158.957,160.919a2.949,2.949,0,0,0-3.9,1.475,14.719,14.719,0,0,1-2.787,4.131,2.95,2.95,0,1,0,4.262,4.076,20.558,20.558,0,0,0,3.906-5.785,2.951,2.951,0,0,0-1.482-3.9Zm0,0"/>
      <path id="Path_96" data-name="Path 96" d="M174.407,100.818a2.951,2.951,0,0,0-3.667,1.995,8.949,8.949,0,0,1-2.3,3.817,2.952,2.952,0,1,0,4.13,4.219,14.824,14.824,0,0,0,3.834-6.364,2.949,2.949,0,0,0-1.994-3.667Zm0,0"/>
      <path id="Path_97" data-name="Path 97" d="M171.041,95.374a2.95,2.95,0,0,0,2.2-4.921,14.842,14.842,0,0,0-6.2-4.107,2.951,2.951,0,1,0-1.917,5.582,8.846,8.846,0,0,1,3.716,2.466,2.955,2.955,0,0,0,2.2.979Zm0,0"/>
      <path id="Path_98" data-name="Path 98" d="M128.806,135.7H122.8a2.95,2.95,0,0,0,0,5.9h6.009a2.95,2.95,0,0,0,0-5.9Zm0,0"/>
      <path id="Path_99" data-name="Path 99" d="M159.362,109.15H153.35a2.95,2.95,0,0,0,0,5.9h6.012a2.95,2.95,0,0,0,0-5.9Zm0,0"/>
      <path id="Path_100" data-name="Path 100" d="M71.765,171.1H65.756a2.95,2.95,0,1,0,0,5.9h6.009a2.95,2.95,0,1,0,0-5.9Zm0,0"/>
      <path id="Path_101" data-name="Path 101" d="M158.689,144.756a2.955,2.955,0,1,0-4.879,3.335,14.589,14.589,0,0,1,2.064,4.527,2.95,2.95,0,1,0,5.708-1.475,20.488,20.488,0,0,0-2.894-6.387Zm0,0"/>
      <path id="Path_102" data-name="Path 102" d="M94.259,134.641a10.492,10.492,0,0,1-3.591-2.936,2.951,2.951,0,0,0-4.661,3.62,16.371,16.371,0,0,0,5.641,4.605,2.95,2.95,0,0,0,2.612-5.289Zm0,0"/>
      <path id="Path_103" data-name="Path 103" d="M89.8,171.1H83.78a2.95,2.95,0,1,0,0,5.9H89.8a2.95,2.95,0,1,0,0-5.9Zm0,0"/>
      <path id="Path_104" data-name="Path 104" d="M125.865,171.1h-6.009a2.95,2.95,0,1,0,0,5.9h6.009a2.95,2.95,0,1,0,0-5.9Zm0,0"/>
      <path id="Path_105" data-name="Path 105" d="M105.265,115.05a2.95,2.95,0,1,0,0-5.9H99.256a2.95,2.95,0,1,0,0,5.9Zm0,0"/>
      <path id="Path_106" data-name="Path 106" d="M123.309,115.05a2.95,2.95,0,0,0,0-5.9h-6.024a2.95,2.95,0,0,0,0,5.9Zm0,0"/>
      <path id="Path_107" data-name="Path 107" d="M110.775,135.7h-6.011a2.95,2.95,0,0,0,0,5.9h6.011a2.95,2.95,0,0,0,0-5.9Zm0,0"/>
      <path id="Path_108" data-name="Path 108" d="M107.835,171.1h-6.012a2.95,2.95,0,0,0,0,5.9h6.012a2.95,2.95,0,1,0,0-5.9Zm0,0"/>
      <path id="Path_109" data-name="Path 109" d="M35.4,171.1H32.45a2.95,2.95,0,1,0,0,5.9H35.4a2.95,2.95,0,0,0,0-5.9Zm0,0"/>
    </g>
  </g>
</svg>
