<svg xmlns="http://www.w3.org/2000/svg" xmlns:xlink="http://www.w3.org/1999/xlink" width="177" height="177" viewBox="0 0 177 177">
  <defs>
    <clipPath id="clip-path">
      <rect id="Rectangle_12" data-name="Rectangle 12" width="177" height="177" transform="translate(1180 2867)" fill="#fff" stroke="#707070" stroke-width="1"/>
    </clipPath>
  </defs>
  <g id="Mask_Group_1" data-name="Mask Group 1" transform="translate(-1180 -2867)" clip-path="url(#clip-path)">
    <g id="Registration" transform="translate(1176.402 2863.402)">
      <path id="Path_43" data-name="Path 43" d="M28.807,83.87H49.466a3.149,3.149,0,0,0,3.145-3.144V73.741a2.159,2.159,0,0,0-4.317,0v5.812H29.979V61.266h9.158a2.159,2.159,0,1,0,0-4.317H28.807a3.148,3.148,0,0,0-3.145,3.144V80.726a3.149,3.149,0,0,0,3.145,3.144Z"/>
      <path id="Path_44" data-name="Path 44" d="M54.4,55.738a2.159,2.159,0,0,0-3.04.278L41.058,68.39l-3.3-2.673a2.158,2.158,0,1,0-2.714,3.357l3.972,3.213a3.422,3.422,0,0,0,4.572-.2L43.671,72l11-13.222a2.159,2.159,0,0,0-.279-3.041Z"/>
      <path id="Path_45" data-name="Path 45" d="M159.048,58.454H74.82a2.159,2.159,0,0,0,0,4.317h84.228a2.159,2.159,0,1,0,0-4.317Z"/>
      <path id="Path_46" data-name="Path 46" d="M159.048,76.338H74.82a2.159,2.159,0,0,0,0,4.317h84.228a2.159,2.159,0,1,0,0-4.317Z"/>
      <path id="Path_47" data-name="Path 47" d="M50.453,117.332a2.159,2.159,0,0,0-2.159,2.159V125.3H29.979V107.016h9.158a2.159,2.159,0,1,0,0-4.317H28.807a3.149,3.149,0,0,0-3.145,3.144v20.632a3.149,3.149,0,0,0,3.145,3.145H49.466a3.149,3.149,0,0,0,3.145-3.145v-6.984a2.159,2.159,0,0,0-2.159-2.159Z"/>
      <path id="Path_48" data-name="Path 48" d="M54.4,101.487a2.159,2.159,0,0,0-3.04.279l-10.3,12.373-3.3-2.673a2.158,2.158,0,1,0-2.716,3.356l3.972,3.213a3.422,3.422,0,0,0,4.572-.2l.087-.083,11-13.222A2.159,2.159,0,0,0,54.4,101.487Z"/>
      <path id="Path_49" data-name="Path 49" d="M159.048,104.2H141.511a2.159,2.159,0,0,0,0,4.317h17.537a2.159,2.159,0,1,0,0-4.317Z"/>
      <path id="Path_50" data-name="Path 50" d="M102.176,104.2H74.82a2.159,2.159,0,0,0,0,4.317h27.355a2.159,2.159,0,1,0,0-4.317Z"/>
      <path id="Path_51" data-name="Path 51" d="M82.193,122.087H74.82a2.159,2.159,0,0,0,0,4.317h7.372a2.159,2.159,0,1,0,0-4.317Z"/>
      <path id="Path_52" data-name="Path 52" d="M169.936,3.6H14.259a9.953,9.953,0,0,0-9.942,9.941V142.547a9.949,9.949,0,0,0,9.927,9.94l82.325.582,4.17,16.388c.007.029.015.058.024.087A15.405,15.405,0,0,0,115.61,180.6h30.1a15.521,15.521,0,0,0,15.5-15.505V152.968l8.792-.48a9.953,9.953,0,0,0,9.879-9.941V13.538A9.953,9.953,0,0,0,169.936,3.6ZM14.259,7.915H169.936a5.631,5.631,0,0,1,5.625,5.624V35.393H8.634V13.538a5.631,5.631,0,0,1,5.625-5.624Zm142.63,157.177a11.2,11.2,0,0,1-11.183,11.188h-30.1a11.113,11.113,0,0,1-10.7-7.933l-4.569-17.956a76.514,76.514,0,0,0-4.295-12.34l-.353-.838a14.2,14.2,0,0,1,11.692,6.138l3.712,5.378v8.016a2.159,2.159,0,0,0,4.317,0V98.08a4.06,4.06,0,1,1,8.12,0V136.4a2.154,2.154,0,0,0,.092.622v8.8a2.159,2.159,0,1,0,4.317,0V133.762a3.22,3.22,0,0,1,6.44,0v2.446a7.8,7.8,0,0,0-.084,1.138v8.473a2.159,2.159,0,0,0,2.159,2.159h.084a2.159,2.159,0,0,0,2.159-2.159v-9.225a3.464,3.464,0,0,1,6.847.75v10.712a2.159,2.159,0,1,0,4.317,0v-7.329a3.511,3.511,0,1,1,7.023,0Zm13.047-16.919c-.039,0-.078,0-.118,0l-8.612.468V140.73a7.821,7.821,0,0,0-12.037-6.6,7.774,7.774,0,0,0-11.125-3.437A7.5,7.5,0,0,0,127.854,127V98.08a8.377,8.377,0,0,0-16.755,0v43.049l-.159-.23a18.519,18.519,0,0,0-15.246-8,4.333,4.333,0,0,0-3.954,6.1l.364.814a72.213,72.213,0,0,1,3.3,8.932l-81.15-.576a5.631,5.631,0,0,1-5.624-5.622V39.71H175.561V142.548a5.631,5.631,0,0,1-5.625,5.623Z"/>
      <path id="Path_53" data-name="Path 53" d="M22.377,29.655A8.274,8.274,0,1,0,14.1,21.381a8.274,8.274,0,0,0,8.274,8.274Zm0-12.229a3.957,3.957,0,1,1-3.957,3.957,3.957,3.957,0,0,1,3.957-3.957Z"/>
      <path id="Path_54" data-name="Path 54" d="M44.19,29.655a8.274,8.274,0,1,0-8.274-8.274A8.274,8.274,0,0,0,44.19,29.655Zm0-12.229a3.957,3.957,0,1,1-3.957,3.957,3.957,3.957,0,0,1,3.957-3.957Z"/>
      <path id="Path_55" data-name="Path 55" d="M66,29.655a8.274,8.274,0,1,0-8.274-8.274A8.274,8.274,0,0,0,66,29.655Zm0-12.229a3.957,3.957,0,1,1-3.957,3.957A3.957,3.957,0,0,1,66,17.426Z"/>
      <path id="Path_56" data-name="Path 56" d="M98.213,23.132h70.128a2.159,2.159,0,1,0,0-4.317H98.213a2.159,2.159,0,0,0,0,4.317Z"/>
    </g>
  </g>
</svg>
