<svg xmlns="http://www.w3.org/2000/svg" viewBox="0 0 791.29 705.39">
  <defs>
    <style>
      .cls-1 {
        fill: #fff;
      }
    </style>
  </defs>
  <g id="Слой_2" data-name="Слой 2">
    <g id="Layer_1" data-name="Layer 1">
      <g>
        <polygon class="cls-1" points="300.06 692.95 373.05 616.83 373.05 426.59 300.06 426.59 300.06 692.95"/>
        <path class="cls-1" d="M384.31,169.36H511c126.27,0,207.3,92.69,207.3,230,0,3.42-.27,6.68-.37,10h73.16c.08-3.34.2-6.66.2-10,0-181.89-111.68-306-275.91-306h-204Z"/>
        <path class="cls-1" d="M717.12,426.59C707,548.73,628.71,629.31,511,629.31H384.93L312,705.39h203.4c155.88,0,264.34-111.9,275-278.8Z"/>
        <polygon class="cls-1" points="300.06 106.37 300.06 409.38 373.05 409.38 373.05 182.49 300.06 106.37"/>
        <polygon class="cls-1" points="208.39 409.38 282.84 409.38 282.84 88.42 198.05 0 0 0 0 76.08 208.39 76.08 208.39 409.38"/>
        <polygon class="cls-1" points="294.85 76.08 491.23 76.08 491.23 0 221.9 0 294.85 76.08"/>
        <polygon class="cls-1" points="282.84 612.07 282.84 426.59 208.39 426.59 208.39 540.66 282.84 612.07"/>
      </g>
    </g>
  </g>
</svg>
