<?xml version="1.0" standalone="no"?>
<!DOCTYPE svg PUBLIC "-//W3C//DTD SVG 20010904//EN"
 "http://www.w3.org/TR/2001/REC-SVG-20010904/DTD/svg10.dtd">
<svg version="1.0" xmlns="http://www.w3.org/2000/svg"
 width="512.000000pt" height="512.000000pt" viewBox="0 0 512.000000 512.000000"
 preserveAspectRatio="xMidYMid meet">
<metadata>
Created by potrace 1.14, written by Peter Selinger 2001-2017
</metadata>
<g transform="translate(0.000000,512.000000) scale(0.100000,-0.100000)"
fill="#000000" stroke="none">
<path d="M2037 4052 l-178 -177 3 -178 3 -177 -360 0 c-198 0 -386 -4 -418
-10 -116 -19 -205 -88 -268 -210 l-34 -64 0 -1041 0 -1040 23 -56 c27 -69 88
-140 149 -176 93 -54 43 -53 1608 -53 1565 0 1515 -1 1608 53 61 36 122 107
149 176 l23 56 0 1040 0 1041 -34 64 c-63 122 -152 191 -268 210 -32 6 -220
10 -418 10 l-360 0 3 177 3 178 -178 177 -178 178 -350 0 -350 0 -178 -178z
m888 -164 c2 -7 6 -93 7 -191 l3 -177 -370 0 -370 0 3 177 c1 98 5 184 7 191
6 18 714 18 720 0z m6 -1184 c261 -141 478 -260 482 -264 5 -4 -35 -38 -90
-76 -54 -37 -102 -71 -106 -75 -5 -4 40 -33 99 -65 l108 -58 -25 -17 c-48 -35
-417 -297 -561 -398 -82 -57 -148 -108 -148 -113 0 -11 55 -1 87 16 52 27 452
312 455 325 2 9 29 0 95 -34 l92 -47 -370 -259 c-203 -142 -374 -259 -381
-259 -8 0 -947 500 -966 515 -2 2 36 30 85 63 48 33 97 67 107 75 19 13 12 18
-87 71 -59 32 -105 62 -101 67 3 5 47 37 97 71 51 33 96 64 100 68 5 4 -39 33
-98 65 -80 43 -104 60 -96 69 22 22 726 515 737 515 6 1 224 -114 485 -255z"/>
<path d="M1931 2026 c2 -2 15 -9 29 -15 24 -11 24 -11 6 3 -16 13 -49 24 -35
12z"/>
<path d="M2030 1975 c0 -2 18 -14 40 -25 22 -11 40 -18 40 -15 0 2 -18 14 -40
25 -22 11 -40 18 -40 15z"/>
<path d="M2160 1905 c0 -2 18 -14 40 -25 22 -11 40 -18 40 -15 0 2 -18 14 -40
25 -22 11 -40 18 -40 15z"/>
<path d="M2270 1845 c0 -2 23 -16 50 -30 28 -14 50 -23 50 -20 0 2 -22 16 -50
30 -27 14 -50 23 -50 20z"/>
<path d="M2400 1775 c0 -2 18 -14 40 -25 22 -11 40 -18 40 -15 0 2 -18 14 -40
25 -22 11 -40 18 -40 15z"/>
<path d="M2530 1705 c0 -2 18 -14 40 -25 22 -11 40 -18 40 -15 0 2 -18 14 -40
25 -22 11 -40 18 -40 15z"/>
</g>
</svg>
