<?xml version="1.0" standalone="no"?>
<!DOCTYPE svg PUBLIC "-//W3C//DTD SVG 20010904//EN"
 "http://www.w3.org/TR/2001/REC-SVG-20010904/DTD/svg10.dtd">
<svg version="1.0" xmlns="http://www.w3.org/2000/svg"
 width="512.000000pt" height="512.000000pt" viewBox="0 0 512.000000 512.000000"
 preserveAspectRatio="xMidYMid meet">
<metadata>
Created by potrace 1.14, written by Peter Selinger 2001-2017
</metadata>
<g transform="translate(0.000000,512.000000) scale(0.100000,-0.100000)"
fill="#000000" stroke="none">
<path d="M2515 4990 c-36 -111 -40 -120 -64 -121 -14 -1 -73 -2 -130 -2 l-104
0 30 -26 c17 -14 58 -45 91 -69 90 -64 88 -59 57 -151 -14 -44 -26 -82 -25
-83 0 -2 -6 -20 -15 -41 -19 -46 -22 -47 95 38 47 34 90 64 97 68 6 4 56 -25
115 -67 57 -41 104 -73 105 -72 1 1 -15 56 -37 122 -22 65 -40 120 -40 121 0
1 47 36 105 78 58 42 105 78 105 79 0 1 -57 2 -126 2 -75 -1 -129 3 -133 9 -5
5 -23 57 -42 115 -18 58 -36 109 -39 113 -4 4 -24 -46 -45 -113z"/>
<path d="M2541 4447 c-7 -23 -20 -58 -28 -77 -8 -19 -19 -44 -23 -55 -126
-314 -315 -657 -486 -880 l-28 -37 55 6 c31 4 86 15 125 25 38 11 70 19 71 17
3 -3 -39 -80 -72 -131 -80 -123 -191 -260 -317 -390 -43 -44 -74 -81 -70 -83
4 -1 69 11 145 27 75 16 137 27 137 24 0 -6 -84 -116 -144 -188 -64 -78 -289
-302 -341 -340 -22 -17 -42 -32 -45 -35 -3 -3 -18 -16 -34 -28 l-30 -23 75 6
c42 3 98 9 125 14 27 5 50 8 52 7 1 -2 -17 -21 -42 -44 -24 -22 -47 -45 -50
-50 -9 -15 69 5 146 37 l67 29 -21 -42 c-119 -233 -418 -603 -643 -793 l-50
-43 80 29 c44 16 118 45 164 65 46 20 88 35 92 34 4 -2 -5 -34 -21 -72 -16
-38 -29 -71 -27 -72 4 -4 139 66 188 97 25 16 49 29 53 29 11 0 -183 -282
-242 -350 -114 -133 -316 -314 -450 -404 -24 -16 -45 -33 -49 -39 -5 -8 153 0
168 9 4 2 24 6 45 10 22 3 45 11 51 16 7 6 13 8 13 4 0 -16 195 73 283 130 48
31 67 40 62 27 -4 -10 -16 -38 -25 -63 -10 -25 -27 -68 -39 -97 l-20 -52 24 9
c74 28 182 93 264 159 l43 35 -6 -43 c-8 -62 -23 -112 -52 -176 -13 -32 -23
-59 -21 -62 7 -7 161 55 294 118 68 32 125 54 128 50 2 -5 3 -17 1 -27 -2 -10
-7 -44 -11 -74 -4 -30 -11 -63 -17 -72 -6 -13 -5 -18 4 -18 16 1 43 24 85 73
l33 37 25 -49 c31 -62 39 -67 56 -33 11 21 67 113 86 141 21 31 27 -227 8
-324 -25 -124 -60 -212 -121 -297 l-34 -48 53 -30 c28 -17 75 -37 102 -46 72
-23 235 -27 320 -7 81 18 188 70 178 87 -4 6 -16 25 -29 41 -66 90 -103 241
-109 447 -7 194 -5 196 82 95 40 -45 83 -93 97 -106 l25 -24 -3 53 c-4 68 11
135 41 183 l24 38 51 -46 c74 -66 164 -117 293 -166 63 -24 70 -24 46 0 -18
18 -49 102 -66 179 l-7 32 134 -68 c73 -37 165 -81 203 -97 39 -15 76 -33 83
-38 29 -23 18 2 -19 43 -53 58 -180 250 -165 250 2 0 40 -22 83 -50 118 -75
295 -131 488 -155 28 -4 59 -9 70 -12 11 -2 -9 15 -45 38 -67 45 -262 232
-341 329 -100 122 -304 408 -296 416 1 1 36 -6 77 -17 95 -24 102 -25 264 -53
49 -9 91 -14 93 -12 2 1 -23 25 -54 52 -151 130 -276 255 -438 439 -73 83
-284 375 -271 375 2 0 26 -9 53 -21 26 -11 70 -30 96 -40 l49 -19 -6 27 c-4
16 -8 38 -10 49 -3 12 -9 39 -15 60 -6 21 -9 39 -7 41 1 2 25 -5 52 -16 60
-24 245 -95 259 -99 6 -2 -42 47 -105 110 -107 106 -174 176 -309 324 -30 32
-70 76 -90 98 l-36 38 35 -6 c43 -7 221 -34 273 -40 l39 -5 -64 57 c-199 180
-347 360 -435 530 -56 108 -55 115 6 85 26 -13 87 -35 135 -48 88 -24 94 -23
56 15 -47 47 -173 233 -270 400 -99 170 -330 632 -330 660 0 5 -4 11 -9 14 -4
3 -14 -14 -20 -37z"/>
</g>
</svg>
