<?xml version="1.0" standalone="no"?>
<!DOCTYPE svg PUBLIC "-//W3C//DTD SVG 20010904//EN"
 "http://www.w3.org/TR/2001/REC-SVG-20010904/DTD/svg10.dtd">
<svg version="1.0" xmlns="http://www.w3.org/2000/svg"
 width="274.000000pt" height="274.000000pt" viewBox="0 0 274.000000 274.000000"
 preserveAspectRatio="xMidYMid meet">
<metadata>
Created by potrace 1.14, written by Peter Selinger 2001-2017
</metadata>
<g transform="translate(0.000000,274.000000) scale(0.100000,-0.100000)"
fill="#000000" stroke="none">
<path d="M1085 2645 c-251 -46 -458 -156 -640 -339 -159 -161 -260 -341 -316
-569 -29 -116 -36 -341 -15 -467 62 -377 303 -709 636 -876 189 -95 327 -124
600 -128 153 -3 217 -8 298 -25 125 -26 269 -78 372 -132 l76 -41 285 173
c156 95 290 178 298 185 27 24 -249 141 -409 173 -77 15 -102 19 -124 20 -15
1 -12 9 21 43 278 304 376 778 243 1180 -113 340 -362 602 -705 743 -113 46
-227 67 -390 70 -102 2 -185 -1 -230 -10z m382 -624 c307 -104 472 -437 368
-746 -113 -337 -494 -497 -807 -339 -57 29 -136 84 -158 111 -116 138 -163
250 -169 399 -11 263 180 519 439 588 90 24 235 19 327 -13z"/>
</g>
</svg>
